<svg xmlns="http://www.w3.org/2000/svg" width="48.583" height="48.58" viewBox="0 0 48.583 48.58">
  <g id="email_5_" data-name="email (5)" transform="translate(-0.001 -0.015)">
    <path id="Path_697" data-name="Path 697" d="M0,0H30l.422,19.653-10.228,8.7-5.078-3.337L9.168,29.373,0,19.653Z" transform="translate(9.581 4.595)" fill="#fbcb65"/>
    <g id="Group_601" data-name="Group 601" transform="translate(0.001 0.015)">
      <g id="Group_600" data-name="Group 600">
        <path id="Path_693" data-name="Path 693" d="M48.584,18.635c0-.017-.009-.032-.01-.048a.773.773,0,0,0-.033-.165.838.838,0,0,0-.046-.14.782.782,0,0,0-.081-.121.8.8,0,0,0-.11-.128c-.013-.011-.019-.027-.032-.037l-7.785-6.048V5.679A2.429,2.429,0,0,0,38.057,3.25H29.282L25.769.522a2.4,2.4,0,0,0-2.953,0L19.3,3.25H10.527A2.429,2.429,0,0,0,8.1,5.679v6.268L.313,18c-.014.011-.019.026-.032.037a.8.8,0,0,0-.11.128.775.775,0,0,0-.081.121.8.8,0,0,0-.046.14.767.767,0,0,0-.033.162c0,.016-.01.031-.01.048V46.166a2.4,2.4,0,0,0,.135.765.8.8,0,0,0,.891,1.215,2.412,2.412,0,0,0,1.4.449H46.155a2.413,2.413,0,0,0,1.406-.456.8.8,0,0,0,.213.035c.3,0,.838-1,.675-1.243a2.4,2.4,0,0,0,.134-.765V18.635ZM23.806,1.8a.776.776,0,0,1,.966,0L26.64,3.25h-4.7ZM2.63,46.976,23.806,30.527a.779.779,0,0,1,.965,0L45.954,46.976Zm44.334-1.265-21.2-16.463a2.4,2.4,0,0,0-2.951,0L1.62,45.711V19.868C19.278,36.694,19.981,32.291,19.628,32.017L2.4,18.424,8.1,14l.124,9.082c0,.447,1.553,1.572,1.553,1.125L9.717,5.679a.81.81,0,0,1,.81-.81H38.057a.81.81,0,0,1,.81.81L38.925,24.2c0,.447,1.578-.381,1.578-.828L40.486,14l5.7,4.426L28.8,32.017c-.353.274.3.334.578.688s.334.681.688.406l16.9-13.242Z" transform="translate(-0.001 -0.015)" fill="#53565d"/>
        <path id="Path_694" data-name="Path 694" d="M162.935,95.463h16.195a.81.81,0,1,0,0-1.619H162.935a.81.81,0,1,0,0,1.619Z" transform="translate(-146.741 -81.941)" fill="#53565d"/>
        <path id="Path_695" data-name="Path 695" d="M179.939,145.854a.81.81,0,0,0-.81-.81H162.935a.81.81,0,0,0,0,1.619h16.195A.81.81,0,0,0,179.939,145.854Z" transform="translate(-146.741 -128.282)" fill="#53565d"/>
      </g>
    </g>
  </g>
</svg>
