<?xml version="1.0" encoding="utf-8"?>
<!-- Generator: Adobe Illustrator 24.3.0, SVG Export Plug-In . SVG Version: 6.00 Build 0)  -->
<svg version="1.1" id="Layer_1" xmlns="http://www.w3.org/2000/svg" xmlns:xlink="http://www.w3.org/1999/xlink" x="0px" y="0px"
	 viewBox="0 0 48.6 48.6" style="enable-background:new 0 0 48.6 48.6;" xml:space="preserve">
<style type="text/css">
	.st0{fill:#FFFFFF;}
</style>
<g id="email_5_" transform="translate(-0.001 -0.015)">
	<g id="Group_601" transform="translate(0.001 0.015)">
		<g id="Group_600">
			<path id="Path_693" class="st0" d="M48.6,18.6C48.6,18.6,48.6,18.6,48.6,18.6c0-0.1,0-0.2,0-0.2c0,0,0-0.1,0-0.1
				c0,0-0.1-0.1-0.1-0.1c0,0-0.1-0.1-0.1-0.1c0,0,0,0,0,0l-7.8-6V5.7c0-1.3-1.1-2.4-2.4-2.4c0,0,0,0,0,0h-8.8l-3.5-2.7
				c-0.9-0.7-2.1-0.7-3,0l-3.5,2.7h-8.8c-1.3,0-2.4,1.1-2.4,2.4v6.3L0.3,18c0,0,0,0,0,0c0,0-0.1,0.1-0.1,0.1c0,0-0.1,0.1-0.1,0.1
				c0,0,0,0.1,0,0.1c0,0.1,0,0.1,0,0.2c0,0,0,0,0,0v27.5c0,0.3,0,0.5,0.1,0.8C-0.1,47.3,0,47.8,0.3,48c0.2,0.1,0.4,0.2,0.7,0.1
				c0.4,0.3,0.9,0.4,1.4,0.4h43.7c0.5,0,1-0.2,1.4-0.5c0.1,0,0.1,0,0.2,0c0.3,0,0.8-1,0.7-1.2c0.1-0.2,0.1-0.5,0.1-0.8L48.6,18.6
				L48.6,18.6z M23.8,1.8c0.3-0.2,0.7-0.2,1,0l1.9,1.4h-4.7L23.8,1.8z M2.6,47l21.2-16.4c0.3-0.2,0.7-0.2,1,0L46,47H2.6z M47,45.7
				L25.8,29.2c-0.9-0.7-2.1-0.7-3,0L1.6,45.7V19.9C19.3,36.7,20,32.3,19.6,32L2.4,18.4L8.1,14l0.1,9.1c0,0.4,1.6,1.6,1.6,1.1
				L9.7,5.7c0-0.4,0.4-0.8,0.8-0.8l0,0h27.5c0.4,0,0.8,0.4,0.8,0.8c0,0,0,0,0,0l0.1,18.5c0,0.4,1.6-0.4,1.6-0.8l0-9.4l5.7,4.4
				L28.8,32c-0.4,0.3,0.3,0.3,0.6,0.7s0.3,0.7,0.7,0.4L47,19.9L47,45.7z"/>
			<path id="Path_694" class="st0" d="M16.2,13.5h16.2c0.4,0,0.8-0.3,0.8-0.8c0-0.4-0.3-0.8-0.8-0.8c0,0,0,0-0.1,0H16.2
				c-0.4,0-0.8,0.3-0.8,0.8C15.3,13.1,15.7,13.5,16.2,13.5C16.2,13.5,16.2,13.5,16.2,13.5z"/>
			<path id="Path_695" class="st0" d="M33.2,17.6c0-0.4-0.4-0.8-0.8-0.8H16.2c-0.4,0-0.8,0.4-0.8,0.8c0,0.4,0.4,0.8,0.8,0.8h16.2
				C32.8,18.4,33.2,18,33.2,17.6z"/>
		</g>
	</g>
</g>
</svg>
