<?xml version="1.0" encoding="utf-8"?>
<!-- Generator: Adobe Illustrator 24.3.0, SVG Export Plug-In . SVG Version: 6.00 Build 0)  -->
<svg version="1.1" id="shopping-bag_2_" xmlns="http://www.w3.org/2000/svg" xmlns:xlink="http://www.w3.org/1999/xlink" x="0px"
	 y="0px" viewBox="0 0 42.2 49.8" style="enable-background:new 0 0 42.2 49.8;" xml:space="preserve">
<style type="text/css">
	.st0{fill:#FFFFFF;}
</style>
<g id="Group_577" transform="translate(15.155)">
	<g id="Group_576">
		<path id="Path_649-2" class="st0" d="M13.1,6.2c-0.6-3.9-4.2-6.7-8.1-6.1C3,0.3,1.3,1.4,0.2,2.9C-0.1,3.3,0,3.9,0.3,4.1
			s0.9,0.2,1.2-0.2l0,0c1.8-2.5,5.2-3,7.7-1.2c1.2,0.9,2,2.2,2.2,3.7c0.1,0.4,0.4,0.7,0.8,0.7c0,0,0.1,0,0.1,0
			C12.8,7.1,13.1,6.6,13.1,6.2C13.1,6.2,13.1,6.2,13.1,6.2z"/>
	</g>
</g>
<g id="Group_579" transform="translate(1.689 10.981)">
	<g id="Group_578" transform="translate(0)">
		<path id="Path_650-2" class="st0" d="M38.7,4.6l-2.5-4.2C36.1,0.2,35.8,0,35.5,0h-2.4c-0.5,0-0.9,0.3-0.9,0.8s0.3,0.9,0.8,0.9
			c0,0,0,0,0.1,0h2l1.5,2.5H2.3l1.5-2.5h0.9c0.5,0,0.8-0.4,0.8-0.9C5.6,0.4,5.2,0,4.8,0H3.4C3.1,0,2.8,0.2,2.7,0.4L0.1,4.6
			C-0.1,5,0,5.6,0.4,5.8c0.1,0.1,0.3,0.1,0.4,0.1H38c0.5,0,0.8-0.4,0.8-0.8C38.9,4.9,38.8,4.8,38.7,4.6L38.7,4.6z"/>
	</g>
</g>
<g id="Group_581" transform="translate(22.27 4.733)">
	<g id="Group_580" transform="translate(0)">
		<path id="Path_651" class="st0" d="M13.9,3.1c-0.1-0.2-0.3-0.3-0.5-0.4L1.9,0C1.5-0.1,1,0.2,0.9,0.7c0,0,0,0,0,0L0,4.4
			c-0.1,0.5,0.2,0.9,0.7,1c0.4,0.1,0.9-0.2,1-0.6l0.7-2.9l9.9,2.3l-1.6,6.6c-0.1,0.5,0.2,0.9,0.6,1c0,0,0,0,0,0c0.1,0,0.1,0,0.2,0
			c0.4,0,0.7-0.3,0.8-0.7l1.7-7.5C14.1,3.5,14.1,3.3,13.9,3.1z"/>
	</g>
</g>
<g id="Group_583" transform="translate(4.983 2.567)">
	<g id="Group_582" transform="translate(0)">
		<path id="Path_652" class="st0" d="M16.6,7.3l-0.8-6.5C15.8,0.3,15.3,0,14.9,0L0.7,1.7C0.3,1.7,0,2.2,0,2.6l1.3,10.9
			c0.1,0.4,0.4,0.7,0.8,0.7c0,0,0.1,0,0.1,0C2.7,14.2,3,13.7,3,13.3l-1.2-10l12.5-1.5l0.7,5.7c0.1,0.5,0.5,0.8,0.9,0.7
			C16.3,8.1,16.6,7.7,16.6,7.3L16.6,7.3z"/>
	</g>
</g>
<g id="Group_585" transform="translate(11.295 8.11)">
	<g id="Group_584">
		<path id="Path_653" class="st0" d="M17,7.6l-1.7-7c-0.1-0.5-0.6-0.7-1-0.6c0,0,0,0,0,0L0.6,3.3C0.2,3.4-0.1,3.9,0,4.3l0.8,3.5
			c0.1,0.5,0.6,0.7,1,0.6c0.5-0.1,0.7-0.6,0.6-1c0,0,0,0,0,0L1.9,4.7l12-2.9L15.3,8c0.1,0.5,0.6,0.7,1,0.6S17.1,8.1,17,7.6L17,7.6z"
			/>
	</g>
</g>
<g id="Group_587" transform="translate(0 15.206)">
	<g id="Group_586">
		<path id="Path_654" class="st0" d="M40.5,0.8c0-0.4-0.4-0.8-0.8-0.8H2.5C2.1,0,1.7,0.4,1.7,0.8L0,33.7c0,0.5,0.3,0.9,0.8,0.9
			c0,0,0,0,0,0h40.5c0.5,0,0.8-0.4,0.8-0.8c0,0,0,0,0,0L40.5,0.8z M1.7,32.9L3.3,1.7h35.6l1.6,31.3L1.7,32.9z"/>
	</g>
</g>
</svg>
