<?xml version="1.0" encoding="utf-8"?>
<!-- Generator: Adobe Illustrator 24.3.0, SVG Export Plug-In . SVG Version: 6.00 Build 0)  -->
<svg version="1.1" id="Layer_1" xmlns="http://www.w3.org/2000/svg" xmlns:xlink="http://www.w3.org/1999/xlink" x="0px" y="0px"
	 viewBox="0 0 50.2 47.4" style="enable-background:new 0 0 50.2 47.4;" xml:space="preserve">
<style type="text/css">
	.st0{fill:none;}
	.st1{fill:#FFFFFF;stroke:#FFFFFF;stroke-width:0.5;}
</style>
<g id="noun_Wallet_177757" transform="translate(-1007.75 26.659)">
	<path id="Path_702" class="st0" d="M1014.7-13.8l-0.7-3.9l1-1.7l32.4-6.7l2,1.1l1.5,1.2l1.9,10.5L1014.7-13.8z"/>
	<path id="Path_701" class="st0" d="M1016.8-13.1l-0.8-2.3l1.3-2.2l27-4.9l1.7,1.1l1.8,7.5L1016.8-13.1z"/>
	<g id="Group_602" transform="translate(1008 -26.398)">
		<path id="Path_699" class="st1" d="M49.7,21.3L49.7,21.3l-0.1-3.9h0.1v-7c0-2.4-2-4.4-4.4-4.4h-1.5l-0.6-2.9
			c-0.4-2-2.3-3.4-4.4-3.1L8.6,5.7C8.3,5.7,8,5.8,7.7,6H3.8C1.7,6,0,7.7,0,9.8v32.7c0,2.4,2,4.4,4.4,4.4h40.8c2.4,0,4.4-2,4.4-4.4
			V24.8L49.7,21.3z M48.7,24.8v10.6H31.1c-1.4,0-2.5-1.1-2.5-2.5v-8.2c0-1.4,1.1-2.5,2.5-2.5h17.6V24.8z M45.3,6.9
			c1.9,0,3.5,1.5,3.5,3.5c0,0,0,0,0,0v3.9c-0.8-1.1-2.1-1.7-3.5-1.7h-0.2L44,6.9H45.3z M8.7,6.6L39,1c0.7-0.1,1.5,0,2.1,0.4
			c0.6,0.4,1,1.1,1.2,1.8l1.7,9.3h-3.9L39,6c-0.3-1.7-2-2.9-3.7-2.6c0,0,0,0,0,0L10.5,8.1c-0.3,0-0.6,0.2-0.9,0.3l0,0
			c-1.3,0.6-2,2-1.7,3.4L8,12.5H7L6.5,9.8C6.3,8.6,6.9,7.4,8,6.8l0,0C8.2,6.7,8.5,6.6,8.7,6.6L8.7,6.6z M9,12.5l-0.2-0.9
			c-0.2-1,0.3-1.9,1.2-2.4L9.7,8.8L10,9.3c0.2-0.1,0.4-0.2,0.6-0.2l24.8-4.6c1.2-0.2,2.3,0.5,2.5,1.7c0,0,0,0,0,0.1l1.2,6.3H9
			L9,12.5z M3.8,6.9h2.6c-0.7,0.9-1,2-0.8,3.1L6,12.5H3.8C2.3,12.5,1,11.3,1,9.7C1,8.2,2.3,6.9,3.8,6.9L3.8,6.9z M48.7,42.4
			c0,1.9-1.6,3.5-3.5,3.5c0,0,0,0,0,0H4.4c-1.9,0-3.5-1.6-3.5-3.5c0,0,0,0,0,0V12.3c0.7,0.8,1.7,1.2,2.8,1.2h41.5
			c1.9,0,3.5,1.6,3.5,3.5c0,0,0,0,0,0v4.4H31.1c-1.9,0-3.4,1.5-3.4,3.4c0,0,0,0,0,0v8.2c0,1.9,1.5,3.4,3.4,3.4c0,0,0,0,0,0h17.6
			V42.4z"/>
	</g>
</g>
</svg>
